<svg width="24" height="24" viewBox="0 0 24 24" fill="none" xmlns="http://www.w3.org/2000/svg">
<path fill-rule="evenodd" clip-rule="evenodd" d="M13.1504 4.4999C13.1504 4.03046 13.5309 3.6499 14.0004 3.6499H18.5004C18.9698 3.6499 19.3504 4.03046 19.3504 4.4999C19.3504 4.96934 18.9698 5.3499 18.5004 5.3499H16.9553L15.7674 7.13177L17.5027 10.3856C17.9744 10.2326 18.4777 10.1499 19.0004 10.1499C21.679 10.1499 23.8504 12.3213 23.8504 14.9999C23.8504 17.6785 21.679 19.8499 19.0004 19.8499C16.3218 19.8499 14.1504 17.6785 14.1504 14.9999C14.1504 14.9497 14.1512 14.8997 14.1527 14.8499L12.0006 14.8499C11.6879 14.8499 11.4004 14.6782 11.2522 14.4029L8.55488 9.39359L7.79022 11.0321C9.03633 11.9099 9.85039 13.3598 9.85039 14.9999C9.85039 17.6785 7.67897 19.8499 5.00039 19.8499C2.32181 19.8499 0.150391 17.6785 0.150391 14.9999C0.150391 12.3213 2.32181 10.1499 5.00039 10.1499C5.43248 10.1499 5.85137 10.2064 6.25008 10.3124L7.5772 7.4686C7.40955 7.08695 7.13275 6.61069 6.75399 6.20487C6.27334 5.68989 5.69138 5.3499 5.00039 5.3499C4.53095 5.3499 4.15039 4.96934 4.15039 4.4999C4.15039 4.03046 4.53095 3.6499 5.00039 3.6499C6.3094 3.6499 7.31077 4.30992 7.99679 5.04493C8.4777 5.5602 8.8344 6.14232 9.0723 6.6499H14.0455L14.9122 5.3499L14.0004 5.3499C13.5309 5.3499 13.1504 4.96934 13.1504 4.4999ZM14.5157 13.1499C14.8363 12.3735 15.3527 11.6986 16.0033 11.1865L14.4904 8.3499H9.92368L12.5083 13.1499L14.5157 13.1499ZM16.823 12.7236C16.2237 13.2971 15.8504 14.1049 15.8504 14.9999C15.8504 16.7396 17.2607 18.1499 19.0004 18.1499C20.7401 18.1499 22.1504 16.7396 22.1504 14.9999C22.1504 13.2602 20.7401 11.8499 19.0004 11.8499C18.7677 11.8499 18.541 11.8751 18.3227 11.923L19.7504 14.5999C19.9713 15.0141 19.8146 15.529 19.4004 15.7499C18.9862 15.9708 18.4713 15.8141 18.2504 15.3999L16.823 12.7236ZM5.51321 11.8914C5.34632 11.8641 5.17501 11.8499 5.00039 11.8499C3.26069 11.8499 1.85039 13.2602 1.85039 14.9999C1.85039 16.7396 3.26069 18.1499 5.00039 18.1499C6.74009 18.1499 8.15039 16.7396 8.15039 14.9999C8.15039 14.0445 7.72509 13.1885 7.05349 12.6108L5.77085 15.3594C5.57233 15.7848 5.06654 15.9687 4.64114 15.7702C4.21574 15.5716 4.03182 15.0659 4.23034 14.6404L5.51321 11.8914Z" fill="black"/>
</svg>
