<svg width="24" height="24" viewBox="0 0 24 24" fill="none" xmlns="http://www.w3.org/2000/svg">
<path fill-rule="evenodd" clip-rule="evenodd" d="M19.8947 9.44059L18.6635 5.74623C18.4849 5.20848 18.1414 4.74069 17.6818 4.40933C17.2221 4.07797 16.6697 3.89989 16.1031 3.90039H7.89721C7.33058 3.89989 6.7782 4.07797 6.31856 4.40933C5.85892 4.74069 5.5154 5.20848 5.3368 5.74623L4.10565 9.44059C3.77861 9.57782 3.49932 9.80846 3.30274 10.1037C3.10616 10.3988 3.00102 10.7455 3.00049 11.1001V15.6C3.00049 16.2776 3.38117 16.8617 3.93555 17.1686C3.93158 17.1888 3.92626 17.2083 3.92096 17.2278C3.91066 17.2656 3.90046 17.3031 3.90046 17.3441V19.1998C3.90046 19.4385 3.99527 19.6674 4.16405 19.8362C4.33283 20.005 4.56174 20.0998 4.80042 20.0998H5.70039C5.93908 20.0998 6.16799 20.005 6.33676 19.8362C6.50554 19.6674 6.60036 19.4385 6.60036 19.1998V17.3999H17.4V19.1998C17.4 19.4385 17.4948 19.6674 17.6636 19.8362C17.8323 20.005 18.0612 20.0998 18.2999 20.0998H19.1999C19.4386 20.0998 19.6675 20.005 19.8363 19.8362C20.0051 19.6674 20.0999 19.4385 20.0999 19.1998V17.3441C20.0999 17.3027 20.0895 17.2645 20.0791 17.2263L20.0791 17.2263C20.0739 17.2072 20.0687 17.1881 20.0648 17.1686C20.3468 17.0148 20.5824 16.7881 20.7469 16.5122C20.9114 16.2363 20.9987 15.9212 20.9998 15.6V11.1001C20.9998 10.3541 20.5427 9.71328 19.8947 9.44059ZM4.80042 15.6V11.1001H19.1999L19.2017 15.6H4.80042ZM7.89721 5.70033H16.1022C16.4901 5.70033 16.8339 5.94692 16.9563 6.3159L17.9516 9.3002H6.04868L7.04314 6.3159C7.10285 6.13663 7.21748 5.98069 7.37077 5.8702C7.52407 5.75972 7.70825 5.70028 7.89721 5.70033ZM7.05034 14.7C7.7959 14.7 8.40029 14.0956 8.40029 13.35C8.40029 12.6045 7.7959 12.0001 7.05034 12.0001C6.30478 12.0001 5.70039 12.6045 5.70039 13.35C5.70039 14.0956 6.30478 14.7 7.05034 14.7ZM18.2992 13.35C18.2992 14.0956 17.6948 14.7 16.9493 14.7C16.2037 14.7 15.5993 14.0956 15.5993 13.35C15.5993 12.6045 16.2037 12.0001 16.9493 12.0001C17.6948 12.0001 18.2992 12.6045 18.2992 13.35Z" fill="black"/>
</svg>
