<svg width="24" height="24" viewBox="0 0 24 24" fill="none" xmlns="http://www.w3.org/2000/svg">
<path fill-rule="evenodd" clip-rule="evenodd" d="M17.1502 7.9999C17.1502 8.22534 17.2397 8.44154 17.3992 8.60094C17.5586 8.76035 17.7748 8.8499 18.0002 8.8499H19.1502V21.9999C19.1502 22.4693 19.5308 22.8499 20.0002 22.8499C20.4696 22.8499 20.8502 22.4693 20.8502 21.9999V8.8499H22.0002C22.4696 8.8499 22.8502 8.46935 22.8502 7.9999V1.9999C22.8502 1.53046 22.4696 1.1499 22.0002 1.1499H18.0002C17.5308 1.1499 17.1502 1.53046 17.1502 1.9999V7.9999ZM21.1502 7.1499H18.8502V2.8499H21.1502V7.1499ZM7.25473 15.3442C7.80568 15.8397 7.85034 16.6878 7.35449 17.2383L7.3387 17.2559C6.84285 17.8065 5.99426 17.8511 5.44332 17.3556C4.89237 16.86 4.84771 16.012 5.34356 15.4614L5.35935 15.4439C5.8552 14.8933 6.70379 14.8487 7.25473 15.3442ZM16.2547 15.3442C16.8057 15.8397 16.8503 16.6878 16.3545 17.2383L16.3387 17.2559C15.8428 17.8065 14.9943 17.8511 14.4433 17.3556C13.8924 16.86 13.8477 16.012 14.3436 15.4614L14.3593 15.4439C14.8552 14.8933 15.7038 14.8487 16.2547 15.3442ZM3.1502 21.9999C3.1502 22.4693 3.53075 22.8499 4.0002 22.8499H6.0002C6.46964 22.8499 6.8502 22.4693 6.8502 21.9999V20.8499H13.1502V21.9999C13.1502 22.4693 13.5308 22.8499 14.0002 22.8499H16.0002C16.4696 22.8499 16.8502 22.4693 16.8502 21.9999V19.9999C16.8502 19.5305 16.4696 19.1499 16.0002 19.1499H15.9994H14.0002H6.0002H4.0002H2.84941V12.8499H15.9994C16.4689 12.8499 16.8494 12.4693 16.8494 11.9999C16.8494 11.5305 16.4689 11.1499 15.9994 11.1499H2.84941V5.9999C2.84941 4.26021 4.25972 2.8499 5.99941 2.8499H14.9994C15.4689 2.8499 15.8494 2.46935 15.8494 1.9999C15.8494 1.53046 15.4689 1.1499 14.9994 1.1499H5.99941C3.32083 1.1499 1.14941 3.32132 1.14941 5.9999V12.4999C1.14941 12.5144 1.14978 12.5289 1.1505 12.5433C1.14978 12.562 1.14941 12.5809 1.14941 12.5999V19.3999C1.14941 20.2007 1.7986 20.8499 2.59941 20.8499H3.1502V21.9999ZM13.9994 8.8499C14.4689 8.8499 14.8494 8.46935 14.8494 7.9999C14.8494 7.53046 14.4689 7.1499 13.9994 7.1499H5.99941C5.52997 7.1499 5.14941 7.53046 5.14941 7.9999C5.14941 8.46935 5.52997 8.8499 5.99941 8.8499H13.9994Z" fill="black"/>
</svg>
