<svg width="24" height="24" viewBox="0 0 24 24" fill="none" xmlns="http://www.w3.org/2000/svg">
<path fill-rule="evenodd" clip-rule="evenodd" d="M11.8504 4.9999C11.8504 4.36477 12.3653 3.8499 13.0004 3.8499C13.6355 3.8499 14.1504 4.36477 14.1504 4.9999C14.1504 5.63503 13.6355 6.1499 13.0004 6.1499C12.3653 6.1499 11.8504 5.63503 11.8504 4.9999ZM13.0004 2.1499C11.4264 2.1499 10.1504 3.42589 10.1504 4.9999C10.1504 6.57391 11.4264 7.8499 13.0004 7.8499C14.5744 7.8499 15.8504 6.57391 15.8504 4.9999C15.8504 3.42589 14.5744 2.1499 13.0004 2.1499ZM10.207 14.5556L11.3282 10.071C10.9556 10.1434 10.5849 10.2677 10.2582 10.4768C9.66701 10.8552 9.06523 11.6127 9.06523 13.353C9.06523 13.8224 8.68468 14.203 8.21523 14.203C7.74579 14.203 7.36523 13.8224 7.36523 13.353C7.36523 11.149 8.17217 9.79353 9.34184 9.04496C10.4298 8.34866 11.6858 8.27815 12.4227 8.27703C12.4338 8.2768 12.4448 8.2768 12.4559 8.27701L13.8498 8.27698C14.255 8.27697 14.6039 8.56296 14.6833 8.96028C14.7812 9.44958 15.0585 10.2569 15.5569 10.9917C16.0532 11.7234 16.7189 12.3137 17.5776 12.5283C18.033 12.6422 18.3099 13.1037 18.1961 13.5591C18.0822 14.0146 17.6207 14.2914 17.1653 14.1776C15.7701 13.8288 14.7924 12.8931 14.15 11.946C13.6986 11.2805 13.3882 10.5751 13.1964 9.97699L13.104 9.977L11.9566 14.5665L12.6135 15.4111C12.6554 15.4546 12.6919 15.5018 12.7229 15.5517L16.6329 20.5789C16.9211 20.9494 16.8544 21.4835 16.4838 21.7717C16.1133 22.0599 15.5792 21.9931 15.291 21.6226L11.9881 17.376L8.66416 21.5309C8.3709 21.8975 7.836 21.9569 7.46943 21.6637C7.10286 21.3704 7.04343 20.8355 7.33668 20.4689L10.9149 15.9961L10.3607 15.2836C10.2003 15.0774 10.1437 14.809 10.207 14.5556Z" fill="black"/>
</svg>
